<?xml version="1.0" encoding="UTF-8" standalone="no"?>
<svg
   xmlns:dc="http://purl.org/dc/elements/1.1/"
   xmlns:cc="http://creativecommons.org/ns#"
   xmlns:rdf="http://www.w3.org/1999/02/22-rdf-syntax-ns#"
   xmlns:svg="http://www.w3.org/2000/svg"
   xmlns="http://www.w3.org/2000/svg"
   viewBox="0 0 733.32269 733.32269"
   height="733.32269"
   width="733.32269"
   xml:space="preserve"
   id="svg2"
   version="1.1"><metadata
     id="metadata8"><rdf:RDF><cc:Work
         rdf:about=""><dc:format>image/svg+xml</dc:format><dc:type
           rdf:resource="http://purl.org/dc/dcmitype/StillImage" /></cc:Work></rdf:RDF></metadata><defs
     id="defs6"><clipPath
       id="clipPath18"
       clipPathUnits="userSpaceOnUse"><path
         id="path16"
         d="M 0,549.992 H 549.992 V 0 H 0 Z" /></clipPath></defs><g
     transform="matrix(1.3333333,0,0,-1.3333333,0,733.32267)"
     id="g10"><g
       id="g12"><g
         clip-path="url(#clipPath18)"
         id="g14"><g
           transform="translate(480.1089,58.6133)"
           id="g20"><path
             id="path22"
             style="fill:#dedfe0;fill-opacity:1;fill-rule:nonzero;stroke:none"
             d="m 0,0 h -84.995 c -2.029,0 -3.675,-1.646 -3.675,-3.675 v -7.557 c 0,-3.271 2.651,-5.922 5.922,-5.922 h 80.622 c 3.271,0 5.922,2.651 5.922,5.922 v 7.435 C 3.796,-1.7 2.097,0 0,0" /></g><g
           transform="translate(387.4048,125.4502)"
           id="g24"><path
             id="path26"
             style="fill:#dedfe0;fill-opacity:1;fill-rule:nonzero;stroke:none"
             d="m 0,0 h -267.979 c -3.583,0 -6.486,-2.903 -6.486,-6.485 V -6.7 c 0,-5.774 4.679,-10.453 10.452,-10.453 H -3.753 C 2.021,-17.153 6.7,-12.474 6.7,-6.7 6.7,-3 3.7,0 0,0" /></g><g
           transform="translate(383.2047,162.2236)"
           id="g28"><path
             id="path30"
             style="fill:#dbddde;fill-opacity:1;fill-rule:nonzero;stroke:none"
             d="m 0,0 h -258.4 c -5.623,0 -10.181,4.559 -10.181,10.182 v 313.902 c 0,5.624 4.558,10.182 10.181,10.182 H 0 c 5.623,0 10.181,-4.558 10.181,-10.182 V 10.182 C 10.181,4.559 5.623,0 0,0" /></g><g
           transform="translate(383.2047,162.2236)"
           id="g32"><path
             id="path34"
             style="fill:none;stroke:#68696b;stroke-width:5;stroke-linecap:butt;stroke-linejoin:miter;stroke-miterlimit:10;stroke-dasharray:none;stroke-opacity:1"
             d="m 0,0 h -258.4 c -5.623,0 -10.181,4.559 -10.181,10.182 v 313.902 c 0,5.624 4.558,10.182 10.181,10.182 H 0 c 5.623,0 10.181,-4.558 10.181,-10.182 V 10.182 C 10.181,4.559 5.623,0 0,0 Z" /></g><g
           transform="translate(148.5152,466.7964)"
           id="g36"><path
             id="path38"
             style="fill:#bdc0c1;fill-opacity:1;fill-rule:nonzero;stroke:none"
             d="m 0,0 c 8.858,-6.913 17.717,-13.825 26.576,-20.737 53.049,-0.114 106.099,-0.227 159.149,-0.34 l 24.29,19.453 C 140.009,-1.083 70.005,-0.542 0,0" /></g><g
           transform="translate(150.3702,281.2597)"
           id="g40"><path
             id="path42"
             style="fill:#ffffff;fill-opacity:1;fill-rule:nonzero;stroke:none"
             d="M 0,0 C 8.24,7.104 16.48,14.208 24.721,21.311 77.562,21.212 130.402,21.113 183.244,21.014 190.983,14.435 198.722,7.856 206.461,1.277 137.641,0.852 68.821,0.426 0,0" /></g><g
           transform="translate(148.3428,280.6045)"
           id="g44"><path
             id="path46"
             style="fill:#dbddde;fill-opacity:1;fill-rule:nonzero;stroke:none"
             d="M 0,0 26.748,21.683 V 165.455 C 17.889,172.367 9.031,179.279 0.172,186.192 0.115,124.128 0.058,62.064 0,0" /></g><path
           id="path48"
           style="fill:#68696b;fill-opacity:1;fill-rule:nonzero;stroke:none"
           d="M 334.24,302.571 H 175.091 V 445.719 H 334.24 Z" /><g
           transform="translate(354.5064,278.3979)"
           id="g50"><path
             id="path52"
             style="fill:none;stroke:#68696b;stroke-width:8;stroke-linecap:butt;stroke-linejoin:miter;stroke-miterlimit:10;stroke-dasharray:none;stroke-opacity:1"
             d="m 0,0 h -201.003 c -5.507,0 -9.97,4.463 -9.97,9.969 v 171.915 c 0,5.506 4.463,9.969 9.97,9.969 H 0 c 5.506,0 9.97,-4.463 9.97,-9.969 V 9.969 C 9.97,4.463 5.506,0 0,0 Z" /></g><path
           id="path54"
           style="fill:#68696b;fill-opacity:1;fill-rule:nonzero;stroke:none"
           d="M 155.149,184.712 H 137.23 v 17.919 h 17.919 z" /><g
           transform="translate(393.3853,482.2968)"
           id="g56"><path
             id="path58"
             style="fill:#ffffff;fill-opacity:1;fill-rule:nonzero;stroke:none"
             d="m 0,0 h -276.598 c 0,5.979 4.366,10.826 9.752,10.826 H -9.751 C -4.365,10.826 0,5.979 0,0" /></g><g
           transform="translate(393.3853,175.9677)"
           id="g60"><path
             id="path62"
             style="fill:#bdc0c1;fill-opacity:1;fill-rule:nonzero;stroke:none"
             d="m 0,0 h -276.598 c 0,-6.569 4.366,-11.895 9.752,-11.895 H -9.751 C -4.365,-11.895 0,-6.569 0,0" /></g><g
           transform="translate(383.2047,162.2236)"
           id="g64"><path
             id="path66"
             style="fill:none;stroke:#68696b;stroke-width:8;stroke-linecap:butt;stroke-linejoin:miter;stroke-miterlimit:10;stroke-dasharray:none;stroke-opacity:1"
             d="m 0,0 h -258.4 c -5.623,0 -10.181,4.559 -10.181,10.182 v 313.902 c 0,5.624 4.558,10.182 10.181,10.182 H 0 c 5.623,0 10.181,-4.558 10.181,-10.182 V 10.182 C 10.181,4.559 5.623,0 0,0 Z" /></g><g
           transform="translate(374.0738,118.4726)"
           id="g68"><path
             id="path70"
             style="fill:#bdc0c1;fill-opacity:1;fill-rule:nonzero;stroke:none"
             d="m 0,0 h -241.104 c -5.772,0 -10.452,4.68 -10.452,10.452 V 43.751 H 10.453 V 10.452 C 10.453,4.68 5.773,0 0,0" /></g><g
           transform="translate(374.0738,118.4726)"
           id="g72"><path
             id="path74"
             style="fill:none;stroke:#68696b;stroke-width:5;stroke-linecap:butt;stroke-linejoin:miter;stroke-miterlimit:10;stroke-dasharray:none;stroke-opacity:1"
             d="m 0,0 h -241.104 c -5.772,0 -10.452,4.68 -10.452,10.452 V 43.751 H 10.453 V 10.452 C 10.453,4.68 5.773,0 0,0 Z" /></g><g
           transform="translate(384.5269,137.5976)"
           id="g76"><path
             id="path78"
             style="fill:#dbddde;fill-opacity:1;fill-rule:nonzero;stroke:none"
             d="m 0,0 h -260.333 c 0,-7.746 4.109,-14.025 9.179,-14.025 H -9.179 C -4.109,-14.025 0,-7.746 0,0" /></g><g
           transform="translate(374.0738,117.9531)"
           id="g80"><path
             id="path82"
             style="fill:none;stroke:#68696b;stroke-width:8;stroke-linecap:butt;stroke-linejoin:miter;stroke-miterlimit:10;stroke-dasharray:none;stroke-opacity:1"
             d="m 0,0 h -241.104 c -5.772,0 -10.452,4.68 -10.452,10.453 V 43.751 H 10.453 V 10.453 C 10.453,4.68 5.773,0 0,0 Z" /></g><path
           id="path84"
           style="fill:#68696b;fill-opacity:1;fill-rule:nonzero;stroke:none"
           d="m 365.792,130.367 h -17.92 v 17.919 h 17.92 z" /><path
           id="path86"
           style="fill:#68696b;fill-opacity:1;fill-rule:nonzero;stroke:none"
           d="M 355.722,221.965 H 214.416 v 13.898 h 141.306 z" /><path
           id="path88"
           style="fill:#68696b;fill-opacity:1;fill-rule:nonzero;stroke:none"
           d="m 355.722,216.007 h -60.871 v 25.062 h 60.871 z" /><path
           id="path90"
           style="fill:#fdfdfd;fill-opacity:1;fill-rule:nonzero;stroke:none"
           d="m 295.128,215.96 h -79.665 v 6.018 h 79.665 z" /><path
           id="path92"
           style="fill:#fdfdfd;fill-opacity:1;fill-rule:nonzero;stroke:none"
           d="m 368.223,209.943 h -73.095 v 6.017 h 73.095 z" /><path
           id="path94"
           style="fill:#fdfdfd;fill-opacity:1;fill-rule:nonzero;stroke:none"
           d="m 357.265,247.132 h 10.958 V 215.83 h -10.958 z" /><path
           id="path96"
           style="fill:#bdc0c1;fill-opacity:1;fill-rule:nonzero;stroke:none"
           d="m 294.852,241.492 h -79.966 v -6.017 h 79.966 z" /><path
           id="path98"
           style="fill:#bdc0c1;fill-opacity:1;fill-rule:nonzero;stroke:none"
           d="m 368.223,247.132 h -74.372 v -6.017 h 74.372 z" /><path
           id="path100"
           style="fill:#bdc0c1;fill-opacity:1;fill-rule:nonzero;stroke:none"
           d="m 220.258,215.96 h -6.842 v 25.532 h 6.842 z" /><g
           transform="translate(465.7486,70.957)"
           id="g102"><path
             id="path104"
             style="fill:#dbddde;fill-opacity:1;fill-rule:nonzero;stroke:none"
             d="m 0,0 h -55.804 c -5.772,0 -10.452,4.68 -10.452,10.453 v 0.015 c 0,5.772 4.68,10.453 10.452,10.453 H 0 c 5.773,0 10.453,-4.681 10.453,-10.453 V 10.453 C 10.453,4.68 5.773,0 0,0" /></g><g
           transform="translate(465.7486,70.957)"
           id="g106"><path
             id="path108"
             style="fill:none;stroke:#68696b;stroke-width:8;stroke-linecap:butt;stroke-linejoin:miter;stroke-miterlimit:10;stroke-dasharray:none;stroke-opacity:1"
             d="m 0,0 h -55.804 c -5.772,0 -10.452,4.68 -10.452,10.453 v 0.015 c 0,5.772 4.68,10.453 10.452,10.453 H 0 c 5.773,0 10.453,-4.681 10.453,-10.453 V 10.453 C 10.453,4.68 5.773,0 0,0 Z" /></g><g
           transform="translate(465.7486,50.0361)"
           id="g110"><path
             id="path112"
             style="fill:#dbddde;fill-opacity:1;fill-rule:nonzero;stroke:none"
             d="m 0,0 h -55.804 c -5.772,0 -10.452,4.68 -10.452,10.453 v 0.015 c 0,5.773 4.68,10.453 10.452,10.453 H 0 c 5.773,0 10.453,-4.68 10.453,-10.453 V 10.453 C 10.453,4.68 5.773,0 0,0" /></g><g
           transform="translate(465.7486,50.0361)"
           id="g114"><path
             id="path116"
             style="fill:none;stroke:#68696b;stroke-width:8;stroke-linecap:butt;stroke-linejoin:miter;stroke-miterlimit:10;stroke-dasharray:none;stroke-opacity:1"
             d="m 0,0 h -55.804 c -5.772,0 -10.452,4.68 -10.452,10.453 v 0.015 c 0,5.773 4.68,10.453 10.452,10.453 H 0 c 5.773,0 10.453,-4.68 10.453,-10.453 V 10.453 C 10.453,4.68 5.773,0 0,0 Z" /></g><path
           id="path118"
           style="fill:#767779;fill-opacity:1;fill-rule:nonzero;stroke:none"
           d="m 361.001,89.941 h -6.949 v 52.605 h 6.949 z" /><g
           transform="translate(365.6617,55.5449)"
           id="g120"><path
             id="path122"
             style="fill:#dedfe0;fill-opacity:1;fill-rule:nonzero;stroke:none"
             d="m 0,0 h -274.904 c -3.582,0 -6.486,-2.904 -6.486,-6.486 v -0.215 c 0,-5.773 4.68,-10.452 10.453,-10.452 H -3.752 C 2.021,-17.153 6.7,-12.474 6.7,-6.701 6.7,-3 3.701,0 0,0" /></g><g
           transform="translate(354.8472,47.6767)"
           id="g124"><path
             id="path126"
             style="fill:#dbddde;fill-opacity:1;fill-rule:nonzero;stroke:none"
             d="m 0,0 h -250.76 c -4.951,0 -8.964,4.014 -8.964,8.964 0,4.951 4.013,8.965 8.964,8.965 H 0 c 4.951,0 8.965,-4.014 8.965,-8.965 C 8.965,4.014 4.951,0 0,0" /></g><g
           transform="translate(354.8472,47.6767)"
           id="g128"><path
             id="path130"
             style="fill:none;stroke:#68696b;stroke-width:8;stroke-linecap:butt;stroke-linejoin:miter;stroke-miterlimit:10;stroke-dasharray:none;stroke-opacity:1"
             d="m 0,0 h -250.76 c -4.951,0 -8.964,4.014 -8.964,8.964 0,4.951 4.013,8.965 8.964,8.965 H 0 c 4.951,0 8.965,-4.014 8.965,-8.965 C 8.965,4.014 4.951,0 0,0 Z" /></g><g
           transform="translate(360.9654,69.8662)"
           id="g132"><path
             id="path134"
             style="fill:#dbddde;fill-opacity:1;fill-rule:nonzero;stroke:none"
             d="m 0,0 h -262.415 c -4.916,0 -8.901,3.985 -8.901,8.901 v 0.126 c 0,4.916 3.985,8.902 8.901,8.902 H 0 c 4.916,0 8.901,-3.986 8.901,-8.902 V 8.901 C 8.901,3.985 4.916,0 0,0" /></g><g
           transform="translate(360.9654,69.8662)"
           id="g136"><path
             id="path138"
             style="fill:none;stroke:#68696b;stroke-width:8;stroke-linecap:butt;stroke-linejoin:miter;stroke-miterlimit:10;stroke-dasharray:none;stroke-opacity:1"
             d="m 0,0 h -262.415 c -4.916,0 -8.901,3.985 -8.901,8.901 v 0.126 c 0,4.916 3.985,8.902 8.901,8.902 H 0 c 4.916,0 8.901,-3.986 8.901,-8.902 V 8.901 C 8.901,3.985 4.916,0 0,0 Z" /></g><path
           id="path140"
           style="fill:#68696b;fill-opacity:1;fill-rule:nonzero;stroke:none"
           d="m 123.515,85.788 h -17.919 v 12.18 h 17.919 z" /><path
           id="path142"
           style="fill:#68696b;fill-opacity:1;fill-rule:nonzero;stroke:none"
           d="M 154.674,85.788 H 130.99 v 12.18 h 23.684 z" /><path
           id="path144"
           style="fill:#68696b;fill-opacity:1;fill-rule:nonzero;stroke:none"
           d="M 300.202,85.788 H 161.011 v 12.18 h 139.191 z" /><path
           id="path146"
           style="fill:#68696b;fill-opacity:1;fill-rule:nonzero;stroke:none"
           d="M 331.937,85.788 H 307.11 v 12.18 h 24.827 z" /><path
           id="path148"
           style="fill:#68696b;fill-opacity:1;fill-rule:nonzero;stroke:none"
           d="m 351.582,85.788 h -13.899 v 12.18 h 13.899 z" /></g></g></g></svg>